<svg xmlns="http://www.w3.org/2000/svg" viewBox="0 0 400.13 75.19"><defs><style>.cls-1{fill:#010101;}.cls-2{fill:#2caae1;}.cls-3{fill:#07a438;}.cls-4{fill:#f49523;}</style></defs><title>Recurso 1</title><g id="Capa_2" data-name="Capa 2"><g id="Capa_1-2" data-name="Capa 1"><path class="cls-1" d="M28.22,19C41.44,19,48,26.66,48,26.66l-4.79,7.08a21.33,21.33,0,0,0-14.58-6C18,27.7,10.31,35.61,10.31,46.44s7.7,19,18.64,19c9.78,0,16.24-7.08,16.24-7.08l4.06,7.39s-7.29,8.44-21,8.44C11.66,74.14,0,62.37,0,46.54,0,30.93,11.66,19,28.22,19Z"/><path class="cls-1" d="M126.4,0h4.38V61c0,7.28,3.74,8.12,6.14,8.12a12.93,12.93,0,0,0,1.56-.1v4a9.86,9.86,0,0,1-1.87.21c-3,0-10.21-1.14-10.21-10.93Z"/><path class="cls-1" d="M178.88,41.13h3.44V39.36c0-11.56-5.94-15.51-14.27-15.51a24.5,24.5,0,0,0-14.89,5l-2.5-3.54s6.25-5.72,17.6-5.72c12,0,18.43,6.66,18.43,19.67V72.89h-4.37V66a24.08,24.08,0,0,1,.41-4.68h-.21c.11,0-4.68,12.81-18.22,12.81-8.43,0-17.7-4.69-17.7-15.1C146.6,41.34,169.61,41.13,178.88,41.13ZM164.51,70.08c11.35,0,17.81-11.77,17.81-22.08V45.19H179c-8.85,0-27.8,0-27.8,13.54C151.18,64.25,155.66,70.08,164.51,70.08Z"/><path class="cls-1" d="M204.28,0h4.38V27.07a21.63,21.63,0,0,1-.42,4.27h.21s4.47-11.76,18.84-11.76c14,0,22.5,11.14,22.5,27.28,0,16.55-9.69,27.28-23.33,27.28-13.12,0-18-11.77-18-11.77h-.21a23.17,23.17,0,0,1,.42,4.58v5.94h-4.38Zm22.39,69.87c10.21,0,18.54-8.44,18.54-23,0-14.06-7.5-23-18.12-23-9.58,0-18.54,6.76-18.54,23.11C208.55,58.52,214.49,69.87,226.67,69.87Z"/><path class="cls-1" d="M287.68,19.58a26.77,26.77,0,0,1,27,27c0,15.52-12.08,27.6-27,27.6s-27-12.08-27-27.6A26.77,26.77,0,0,1,287.68,19.58Zm0,50.29c12.39,0,22.39-10.1,22.39-23.33a22.39,22.39,0,1,0-44.77,0C265.3,59.77,275.29,69.87,287.68,69.87Z"/><path class="cls-1" d="M329.12,20.83h4.38v9.89a21.76,21.76,0,0,1-.42,4.27h.21c2.6-8,8.43-14.58,16.66-14.58a16.49,16.49,0,0,1,3,.31v4.37a17.69,17.69,0,0,0-2.4-.2c-8.12,0-13.22,6.87-15.51,14.57A36.9,36.9,0,0,0,333.5,50.4V72.89h-4.38Z"/><path class="cls-1" d="M392.32,41.13h3.44V39.36c0-11.56-5.93-15.51-14.26-15.51a24.5,24.5,0,0,0-14.89,5l-2.5-3.54s6.25-5.72,17.6-5.72c12,0,18.42,6.66,18.42,19.67V72.89h-4.37V66a23.52,23.52,0,0,1,.42-4.68H396c.11,0-4.68,12.81-18.22,12.81-8.44,0-17.7-4.69-17.7-15.1C360.05,41.34,383.06,41.13,392.32,41.13ZM378,70.08c11.34,0,17.8-11.77,17.8-22.08V45.19h-3.33c-8.85,0-27.8,0-27.8,13.54C364.63,64.25,369.11,70.08,378,70.08Z"/><path class="cls-1" d="M87.55,27.85a17.69,17.69,0,0,1,13,8.27,13.58,13.58,0,0,1,7.93-2.51,13.33,13.33,0,0,1,2.2.19C106.11,25,96.85,19.26,86.06,19a12.67,12.67,0,0,1,1.73,6.43A12.84,12.84,0,0,1,87.55,27.85Z"/><path class="cls-1" d="M68.68,54.24a20.27,20.27,0,0,1-1.52-7.8,19.54,19.54,0,0,1,2.15-9.06,12.83,12.83,0,0,1-7.14-7.24,27,27,0,0,0-5.32,16.3,27.59,27.59,0,0,0,3.76,14.07A13,13,0,0,1,68.68,54.24Z"/><path class="cls-1" d="M100.51,56.92a17.74,17.74,0,0,1-15,8.46c0,.41.06.84.06,1.26a12.86,12.86,0,0,1-2.3,7.4c.66,0,1.33.1,2,.1,11.07,0,20.63-5.81,25.32-14.84a13.46,13.46,0,0,1-10.09-2.38Z"/><path class="cls-2" d="M80.75,19.31A9,9,0,0,0,74.53,17a8.47,8.47,0,0,0-8.83,8.46c0,.27.06.52.08.77A8.29,8.29,0,0,0,72,33.58a9.33,9.33,0,0,0,2.57.39,8.65,8.65,0,0,0,8.83-8.55A8.28,8.28,0,0,0,80.75,19.31Z"/><path class="cls-3" d="M81,64.85a8.51,8.51,0,0,0-8.64-6.67,9.1,9.1,0,0,0-1.3.12,8.36,8.36,0,0,0-7.31,6.46,8.27,8.27,0,0,0-.22,1.88,8.5,8.5,0,0,0,8.83,8.55,9,9,0,0,0,5.68-2,8.33,8.33,0,0,0,3.15-6.6A8.76,8.76,0,0,0,81,64.85Z"/><path class="cls-4" d="M112.7,39.05a9.33,9.33,0,0,0-4.23-1,9,9,0,0,0-6,2.21,8.2,8.2,0,0,0-2.8,6.25,8.38,8.38,0,0,0,2.76,6.29,9,9,0,0,0,6.07,2.26,9.31,9.31,0,0,0,4.19-1,8.31,8.31,0,0,0,4.64-7.55A8.22,8.22,0,0,0,112.7,39.05Z"/></g></g></svg>